<?xml version="1.0" encoding="UTF-8" standalone="no"?>
<svg width="300px" height="59px" viewBox="0 0 300 59" version="1.1" xmlns="http://www.w3.org/2000/svg" xmlns:xlink="http://www.w3.org/1999/xlink" xmlns:sketch="http://www.bohemiancoding.com/sketch/ns">
    <title>Slice 1</title>
    <description>Created with Sketch (http://www.bohemiancoding.com/sketch)</description>
    <defs></defs>
    <g id="Page-1" stroke="none" stroke-width="1" fill="none" fill-rule="evenodd" sketch:type="MSPage">
        <g id="Mirumbita" sketch:type="MSLayerGroup" fill="#51BD1F">
            <path d="M10.3275816,25.5409403 L10.3275816,51.0066273 C10.3275816,52.850742 9.90148962,54.3721366 8.90912308,55.4371128 C7.95160421,56.4913317 6.67174441,57 5.14795093,57 C3.66296508,57 2.39656916,56.4928685 1.42479442,55.4770686 C0.429259908,54.4090189 0,52.8714883 0,51.0066273 L0,14.836623 C0,12.7450896 0.553602723,11.0823128 1.95067741,10.1886856 C3.19252157,9.36882294 4.80581019,9.00153676 6.72163993,9 L9.67893974,9 C11.4720106,9 12.8833412,9.15137108 13.8250202,9.52173078 C14.8340186,9.90899486 15.5753235,10.6136003 16.0410151,11.5894444 C16.4583951,12.4653988 16.9098308,13.8384959 17.4056181,15.6749268 L23.498416,37.9633578 L29.5935899,15.6749268 C30.0862092,13.8384959 30.5400209,12.4653988 30.9566089,11.5902127 C31.4175485,10.618979 32.1485576,9.91206839 33.1417161,9.52173078 C34.098443,9.1544446 35.5224454,9 37.3186843,9 L40.2759841,9 C42.1910218,9 43.8051025,9.36882294 45.0469466,10.1886856 C46.4432293,11.0823128 46.998416,12.7458579 47,14.836623 L47,51.0066273 C47,52.850742 46.5731161,54.3721366 45.5807495,55.4371128 C44.6200627,56.4928685 43.328323,57 41.7855217,57 C40.3132077,57 39.0602757,56.479806 38.0924609,55.4417231 C37.0985104,54.3759785 36.6692505,52.850742 36.6692505,51.0066273 L36.6692505,25.5409403 L30.6493159,48.7591125 C30.1479846,50.6816021 29.7353566,52.0915814 29.4090557,52.9967344 C29.059787,54.0156077 28.4071852,54.9176872 27.488474,55.7168035 C26.4707637,56.602747 25.1069527,57 23.498416,57 C22.2676597,57 21.1794621,56.737982 20.2599589,56.16938 C19.3808473,55.6499544 18.6926058,54.9684003 18.1960266,54.127023 C17.732711,53.3425059 17.3644345,52.4742352 17.0919891,51.548336 L16.3506841,48.7606493 L10.3275816,25.5409403" id="Fill-1" sketch:type="MSShapeGroup"></path>
            <path d="M59,51.9250324 C59,53.7826281 58.5698183,55.3230157 57.585998,56.4115983 C56.6259489,57.4734189 55.3967487,58 53.952841,58 C52.5043325,58 51.2751323,57.4513796 50.3357871,56.3620099 C49.4102446,55.2592593 49,53.7369753 49,51.9250324 L49,26.9781522 C49,25.150467 49.4079442,23.6305444 50.3488229,22.5592784 C51.2897017,21.5163486 52.5158347,21.0007871 53.952841,21 C55.3890806,21 56.6198144,21.5147744 57.5783299,22.549833 C58.5575493,23.6053566 59,25.0300381 59,26.7231263 L59,51.9250324 L59,51.9250324 Z M50.5052527,17.7030237 C49.4777241,16.7881084 49,15.5091023 49,13.9839831 C49,12.5541839 49.5060962,11.3400266 50.524423,10.4040159 C51.529714,9.47816236 52.7121386,9 54.047159,9 C55.3223679,9 56.4672188,9.42425189 57.451039,10.2555668 C58.5115405,11.1517306 59,12.4385499 59,13.9839831 C59,15.4926947 58.517675,16.7646691 57.5031823,17.6967732 C56.5300974,18.5640284 55.363009,19 54.047159,19 C52.6960356,19 51.4998083,18.5702789 50.5052527,17.7030237 L50.5052527,17.7030237 Z" id="Fill-2" sketch:type="MSShapeGroup"></path>
            <path d="M239,51.9250324 C239,53.7826281 238.569818,55.3230157 237.585998,56.4115983 C236.625949,57.4734189 235.395982,58 233.952841,58 C232.504332,58 231.274365,57.4513796 230.335787,56.3620099 C229.410245,55.2592593 229,53.7369753 229,51.9250324 L229,26.9781522 C229,25.150467 229.407944,23.6305444 230.348056,22.5592784 C231.289702,21.5163486 232.515835,21.0007871 233.952841,21 C235.389081,21 236.619814,21.5147744 237.57833,22.549833 C238.556782,23.6053566 239,25.0300381 239,26.7231263 L239,51.9250324 L239,51.9250324 Z M230.505253,17.7030237 C229.477724,16.7881084 229,15.5091023 229,13.9839831 C229,12.5541839 229.506096,11.3400266 230.524423,10.4040159 C231.529714,9.47816236 232.711372,9 234.047159,9 C235.322368,9 236.467219,9.42425189 237.451039,10.2555668 C238.511541,11.1517306 239,12.4385499 239,13.9839831 C239,15.4926947 238.517675,16.7646691 237.502415,17.6967732 C236.530097,18.5640284 235.362242,19 234.047159,19 C232.696036,19 231.499041,18.5702789 230.505253,17.7030237 L230.505253,17.7030237 Z" id="Fill-3" sketch:type="MSShapeGroup"></path>
            <path d="M72.8921355,36.6701724 L72.8921355,50.6016904 C72.8921355,52.6248379 72.4421822,54.2745522 71.3930681,55.3879364 C70.3719304,56.469817 69.0360584,57 67.4616102,57 C65.7892446,57 64.4013056,56.4567546 63.4104756,55.2995726 C62.4289711,54.1554531 62,52.5479998 62,50.6016904 L62,15.4290448 C62,13.3459636 62.4678272,11.6616722 63.5798881,10.5621188 C64.6888405,9.46333381 66.3953994,9.00153676 68.5029531,9 L83.7345353,9 C85.8731738,9 87.6978551,9.09604764 89.2171278,9.28660616 C90.7799192,9.46102867 92.1966118,9.83215675 93.4796394,10.4084426 C95.0167858,11.0515776 96.3751943,11.9667195 97.5540877,13.1546367 C98.7446379,14.354848 99.640659,15.7486914 100.24526,17.340777 C100.870842,18.9090429 101.178583,20.5679777 101.180137,22.3214234 C101.180137,25.8797964 100.156668,28.8011814 98.0390115,31.0072036 C96.2764998,32.8643807 93.7749456,34.2213418 90.5910786,35.1218845 C91.7715263,35.9440522 92.9022381,36.9713778 93.9902083,38.1931038 C95.5327945,39.9327186 96.9028598,41.7814436 98.1035126,43.7546463 C99.3267019,45.7071027 100.26391,47.4690006 100.930681,49.0603179 C101.592011,50.5778706 101.998446,51.77424 102,52.5341689 C102,53.3094655 101.741996,54.0532584 101.277277,54.7563271 C100.819552,55.4601642 100.193192,55.9995678 99.410631,56.3860635 C98.610973,56.8048312 97.7149518,57 96.7272303,57 C95.5514454,57 94.5132111,56.7241512 93.6443892,56.1186669 C92.8447311,55.584642 92.1624184,54.9023196 91.5865713,54.0816885 C91.0767796,53.328675 90.3719304,52.2106805 89.4813491,50.7407674 L85.727852,44.5629832 C84.3919801,42.318542 83.2092011,40.635019 82.1849549,39.5031936 C81.1863537,38.3775152 80.2040721,37.6498583 79.2544296,37.2710464 C78.2806963,36.8807088 77.0093255,36.6701724 75.407678,36.6701724 L72.8921355,36.6701724 L72.8921355,36.6701724 Z M73,17 L73,28 L80.5074472,28 C82.6822661,28 84.4768933,27.8180807 85.9096882,27.4649434 C87.315709,27.0980474 88.3109391,26.5133069 88.971111,25.7474116 C89.628223,24.9906886 90,23.9129317 90,22.4239455 C90,21.2957404 89.713135,20.3372247 89.1638843,19.5208811 C88.6085137,18.6808422 87.8358907,18.0464179 86.8268911,17.6252519 C85.9104531,17.2384824 83.9375872,17.0015287 80.7537686,17.0007644 L73,17 L73,17 Z" id="Fill-4" sketch:type="MSShapeGroup"></path>
            <path d="M125.505537,52.3452039 C124.846221,53.039058 124.164515,53.6547961 123.459649,54.1993107 C122.262226,55.122152 120.95363,55.8098794 119.527685,56.2502393 C118.101739,56.7151063 116.498999,56.9394984 114.722551,56.9394984 C112.546961,56.9394984 110.565152,56.4891825 108.79488,55.5778288 C107.050086,54.6687727 105.677411,53.4005361 104.702333,51.782309 C103.539651,49.8148574 103,47.068543 103,43.630672 L103,26.8165805 C103,25.0237411 103.402229,23.5433659 104.358006,22.5194333 C105.290622,21.493969 106.522787,21.0007658 107.986562,21 C109.466549,21 110.721875,21.4955007 111.676108,22.5148382 C112.646554,23.5548535 113.06654,25.0321654 113.068856,26.8165805 L113.068856,40.3988129 C113.068856,42.3295041 113.232527,43.9209267 113.547516,45.1899292 C113.852469,46.3999617 114.372048,47.2967643 115.097759,47.9446678 C115.801853,48.545089 116.783107,48.8774651 118.137253,48.8774651 C119.4196,48.8774651 120.630148,48.5029676 121.787426,47.7302317 C122.942387,46.9605591 123.770779,45.9756845 124.298077,44.7442083 C124.714975,43.6988321 124.961254,41.2282213 124.961254,37.1363201 L124.961254,26.8165805 C124.961254,25.0336971 125.382784,23.5548535 126.354001,22.5148382 C127.304374,21.4962665 128.548119,21.0007658 130.011894,21 C131.475669,21 132.708606,21.4955007 133.641222,22.5194333 C134.596227,23.5433659 134.998456,25.0237411 135,26.8165805 L135,51.3993873 C135,53.1187057 134.604719,54.5439403 133.673647,55.5433659 C132.788125,56.5221137 131.630076,57 130.262033,57 C128.887042,57 127.706603,56.4945434 126.787112,55.5081371 C126.046732,54.6733678 125.633694,53.596592 125.505537,52.3452039" id="Fill-5" sketch:type="MSShapeGroup"></path>
            <path d="M148.682123,25.0911354 C149.869965,23.9377752 151.130341,23.0310167 152.465591,22.3823473 C154.289861,21.4977982 156.306775,21.0627992 158.501514,21.0612675 C160.776587,21.0612675 162.778682,21.5077542 164.475822,22.4313613 C165.886726,23.1987364 167.082367,24.2915949 168.061967,25.6838981 C169.377718,24.2632587 170.787062,23.1726977 172.300138,22.4191078 C174.085411,21.5108175 176.050849,21.0627992 178.189433,21.0612675 C180.65169,21.0612675 182.817571,21.5383879 184.66056,22.5194333 C186.511347,23.5058396 187.901193,24.9310741 188.817617,26.7713957 C189.629531,28.4608463 190,31.0187632 190,34.3394601 L190,50.9046525 C190,52.784798 189.568696,54.334865 188.566478,55.4170017 C187.583759,56.481524 186.281266,57 184.740893,57 C183.232497,57 181.943263,56.4700364 180.946506,55.4170017 C179.952867,54.3164848 179.512984,52.7664178 179.512984,50.9046525 L179.512984,36.6385219 C179.512984,34.8609994 179.43031,33.4327015 179.264964,32.3612866 C179.137055,31.4001532 178.775944,30.6197588 178.194892,29.9986598 C177.692614,29.4587402 176.876021,29.1233008 175.592247,29.1233008 C174.614207,29.1233008 173.676724,29.4028336 172.75562,29.9932989 C171.856354,30.5807007 171.155972,31.3672219 170.642774,32.3750718 C170.092919,33.6555619 169.776265,36.0327398 169.776265,39.6207161 L169.776265,50.9046525 C169.776265,52.784798 169.342621,54.334865 168.341184,55.4170017 C167.358465,56.481524 166.055972,57 164.516379,57 C163.008763,57 161.727328,56.4715681 160.748509,55.4139383 C159.775929,54.3333333 159.350084,52.7794371 159.350084,50.9046525 L159.350084,37.3829217 C159.350084,35.2891059 159.27911,33.6632204 159.134822,32.5037335 C159.001453,31.4376795 158.645022,30.6189929 158.109206,30.0070841 C157.650604,29.4702278 156.869888,29.1233008 155.589234,29.1233008 C152.948371,29.1233008 151.423597,29.9917672 150.683438,31.5448976 C149.862945,33.307869 149.425401,35.9140341 149.425401,39.4338503 L149.425401,50.9046525 C149.425401,52.7664178 148.990197,54.3134214 147.998119,55.410875 C147.035678,56.4799923 145.751124,57 144.228689,57 C142.720294,57 141.4295,56.4700364 140.433522,55.4170017 C139.439884,54.3164848 139,52.7664178 139,50.9046525 L139,26.6312464 C139,24.9349033 139.393868,23.5127321 140.300933,22.4956921 C141.218917,21.4955007 142.425478,21.0007658 143.848861,21 C145.222328,21 146.400031,21.4610377 147.332834,22.4007276 C148.082352,23.117557 148.517556,24.0281447 148.682123,25.0911354" id="Fill-6" sketch:type="MSShapeGroup"></path>
            <path d="M201.552273,52.434447 C201.408444,53.6786856 200.989329,54.7369059 200.248531,55.5396405 C199.3206,56.5129562 198.128209,57 196.743273,57 C195.338231,57 194.145067,56.5114125 193.254253,55.5188003 C192.378905,54.4929981 192,53.0596538 192,51.3553865 L192,14.0205094 C192,12.2050943 192.357253,10.7022825 193.197804,9.63479987 C194.070059,8.53721469 195.280235,8.00154372 196.743273,8 C198.241107,8 199.485308,8.49476238 200.369935,9.55452641 C201.23755,10.5749256 201.612589,11.9743081 201.614909,13.6430698 L201.614909,24.9153159 C202.856789,23.7992061 204.125735,22.8984453 205.424064,22.2138053 C207.238169,21.2420333 209.437365,20.7804609 211.996134,20.7789172 C214.966285,20.7789172 217.596969,21.4890286 219.868079,22.933179 C222.162388,24.3564891 223.915404,26.4243026 225.142592,29.1134634 C226.389886,31.7840997 227,34.9209395 227,38.5147205 C227,41.1699195 226.656666,43.6228912 225.962264,45.875951 C225.290288,48.1089426 224.298175,50.0617488 222.976647,51.7320543 C221.650479,53.4054471 220.032787,54.7114346 218.131302,55.6415261 C216.240643,56.5492337 214.157439,57 211.901021,57 C210.521497,57 209.206929,56.8363656 207.969688,56.5044658 C206.764151,56.1756533 205.703217,55.7403242 204.81163,55.1923035 C203.96644,54.6504576 203.217136,54.0823685 202.591556,53.5042452 C202.296938,53.2217444 201.95051,52.8620576 201.552273,52.434447 L201.552273,52.434447 Z M204.161698,46.5724085 C205.590604,48.1935976 207.440924,49 209.785235,49 C211.703449,49 213.364913,48.2027439 214.801623,46.5160061 C216.23131,44.8414634 217,42.3871951 217,39.0457317 C217,36.8887195 216.681598,35.0693598 216.070548,33.5685976 C215.460278,32.066311 214.605744,30.9496951 213.538161,30.1814024 C212.479163,29.398628 211.234431,29.0007622 209.785235,29 C208.287654,29 206.973467,29.4016768 205.820041,30.195122 C204.670517,30.9679878 203.737943,32.117378 203.048072,33.683689 C202.358982,35.2164634 202,37.0800305 202,39.2942073 C202,42.5510671 202.756204,44.9382622 204.161698,46.5724085 L204.161698,46.5724085 Z" id="Fill-7" sketch:type="MSShapeGroup"></path>
            <path d="M249.72145,20.5802231 L251.087084,16.3702528 C251.527208,15.019723 251.904904,13.9695711 252.213147,13.2307197 C252.577576,12.4154086 253.046574,11.7272704 253.645892,11.2021944 C254.255355,10.6459103 254.977971,10.2909184 255.81608,10.1184937 C256.680721,9.922663 257.541461,9.97103553 258.411565,10.2526885 C259.655463,10.6568331 260.61843,11.4963305 261.292663,12.7025229 C261.767904,13.5537234 261.937242,14.475142 261.809263,15.4449331 C261.719521,16.3195396 261.433909,17.4609753 260.98442,18.8520755 L259.399504,23.7228769 L261.681283,24.4648491 C262.957176,24.8791364 263.944334,25.5399675 264.492929,26.5269231 C265.047767,27.464726 265.142191,28.4906917 264.801172,29.5455249 C264.36495,30.885912 263.464411,31.7503759 262.109702,31.9547888 C260.929794,32.1428175 259.47754,31.9181193 257.808345,31.3758789 L256.999109,31.1121706 L252.321617,45.5006569 C251.91895,46.7505406 251.640361,47.7265734 251.495213,48.435777 C251.399229,49.0240494 251.458536,49.5038736 251.626314,49.9064579 C251.772242,50.181089 252.121844,50.490049 252.878015,50.7350325 C253.325943,50.8809303 253.949453,50.9979606 254.764151,51.0986066 C255.662348,51.1844289 256.391987,51.3092612 256.928877,51.4840265 C257.82005,51.7727012 258.472433,52.3984233 258.89617,53.2691288 C259.358145,54.1523175 259.426817,55.096362 259.113111,56.0622521 C258.569979,57.7311043 257.221512,58.6564239 255.331475,58.9209124 C253.4906,59.1744781 251.169022,58.8124644 248.413562,57.919133 C245.782961,57.0632513 243.813326,55.9389802 242.632638,54.4776617 C241.469118,53.0397494 240.926766,51.374018 241.007923,49.5225985 C241.107029,47.7749459 241.591634,45.597402 242.428183,43.0188342 L247.318714,27.9679563 L246.963649,27.8524864 C245.67449,27.4327377 244.667043,26.7687858 244.099719,25.7833906 C243.547223,24.8245222 243.452018,23.7852931 243.796939,22.7218777 C244.1442,21.6514405 244.851208,20.8782603 245.886749,20.4553907 C246.956626,20.016137 248.204425,20.0863552 249.547429,20.5217079 L249.72145,20.5802231" id="Fill-8" sketch:type="MSShapeGroup"></path>
            <path d="M283.84924,56.7293945 C281.78565,57.579608 279.475814,58 276.943333,58 C274.608321,58 272.507755,57.5411048 270.679397,56.6052414 C268.884081,55.6536624 267.475049,54.3555546 266.481411,52.7172043 C265.491706,51.0874976 265,49.3132075 265,47.4061206 C265,44.8476225 265.814265,42.63251 267.461675,40.8016438 C269.101218,38.9802069 271.327661,37.7866078 274.09144,37.1839149 C274.649231,37.0558328 276.024434,36.7690233 278.226488,36.3203432 C280.410448,35.875592 282.272635,35.4756302 283.820918,35.1149574 C285.213428,34.7755007 286.702706,34.3794678 288.29898,33.9237157 C288.143994,32.0205577 287.710506,30.7169495 287.089777,29.9225264 C286.513105,29.1548198 285.163078,28.6000595 282.62745,28.6000595 C280.460798,28.6000595 278.945558,28.9049419 277.987322,29.4290569 C277.005485,29.9743878 276.140083,30.8018137 275.39033,31.9451229 C274.605174,33.1764394 274.019061,34.0305817 273.641431,34.4792618 C273.072626,35.1581753 272.026277,35.3286894 270.939804,35.3286894 C269.784886,35.3286894 268.745617,34.9507295 267.879428,34.2105252 C267.007732,33.4216026 266.56087,32.3977319 266.56087,31.2088475 C266.56087,29.4840614 267.178453,27.8370676 268.345172,26.2820099 C269.540213,24.6908064 271.363851,23.4288445 273.746066,22.4584068 C276.167618,21.4753966 279.1328,21 282.625877,21 C286.504451,21 289.627765,21.4573237 291.954122,22.4285472 C294.311163,23.3879839 296.006564,24.9383269 296.993122,27.0921486 C297.97496,29.1870368 298.434409,31.9034765 298.434409,35.1943212 C298.434409,37.240491 298.424969,38.9707775 298.4053,40.3985389 C298.4053,41.8263003 298.392713,43.4017882 298.373044,45.1477903 C298.373044,46.7020621 298.621651,48.3286257 299.137745,50.0518402 C299.679015,51.7821267 300,53.0378024 300,53.6868562 C300,54.8592393 299.428048,55.8776095 298.457224,56.7246798 C297.493481,57.5670355 296.364525,58 295.108906,58 C293.957921,58 292.888757,57.4578121 291.925013,56.5408074 C291.128057,55.7707435 290.314579,54.7272283 289.4775,53.4424788 C287.564175,54.8592393 285.685466,55.957759 283.84924,56.7293945 L283.84924,56.7293945 Z M283.364086,42.0305221 C280.96774,42.5493976 279.294139,42.9389558 278.368367,43.1959839 C277.567233,43.4016064 276.771587,43.8329317 275.99789,44.5060241 C275.353534,45.0473896 275,45.8216867 275,46.9317269 C275,48.053012 275.400567,48.9951807 276.249518,49.8080321 C277.077303,50.584739 278.178666,51 279.640617,51 C281.240533,51 282.694645,50.6473896 284.024904,49.946988 C285.384949,49.2200803 286.337373,48.3124498 286.926857,47.2497992 C287.600217,46.0971888 287.998432,44.0570281 288,41 C286.7983,41.2096386 285.250121,41.611245 283.364086,42.0305221 L283.364086,42.0305221 Z" id="Fill-9" sketch:type="MSShapeGroup"></path>
            <path d="M233.174962,6.98768365 C233.454751,6.98768365 233.728507,7.01469209 234,7.05370428 L230.594268,0.970803376 C230.73454,0.874773367 230.825792,0.714223195 230.825792,0.532666458 C230.825792,0.23782432 230.585219,0 230.289593,0 C229.993213,0 229.754902,0.23782432 229.754902,0.532666458 C229.754902,0.817005314 229.978884,1.04957799 230.263198,1.06458268 L229.954751,5.34617068 L227.757164,4.28683964 C227.788084,4.19906221 227.806184,4.10453267 227.806184,4.00550172 C227.806184,3.54710847 227.432127,3.17499219 226.96908,3.17499219 C226.508296,3.17499219 226.134238,3.54710847 226.134238,4.00550172 C226.134238,4.46389497 226.505279,4.83451078 226.965309,4.83751172 L227.129713,7.24276336 L223.051282,5.93060331 C223.063348,5.88408878 223.070136,5.83607377 223.070136,5.7865583 C223.070136,5.49171616 222.830317,5.25314161 222.536199,5.25314161 C222.238311,5.25314161 222,5.49171616 222,5.7865583 C222,6.0806502 222.238311,6.31847452 222.536199,6.31847452 C222.647813,6.31847452 222.753394,6.28471397 222.839367,6.22469522 L227.4819,12 C227.828054,9.17611754 230.24359,6.98768365 233.174962,6.98768365" id="Fill-10" sketch:type="MSShapeGroup"></path>
        </g>
    </g>
</svg>